{
	"asset":{
		"generator":"Khronos glTF Blender I/O v4.1.63",
		"version":"2.0"
	},
	"scene":0,
	"scenes":[
		{
			"name":"Scene",
			"nodes":[
				0,
				1,
				2,
				3,
				4
			]
		}
	],
	"nodes":[
		{
			"mesh":0,
			"name":"Curve",
			"scale":[
				5.669179916381836,
				5.669179916381836,
				5.669179916381836
			]
		},
		{
			"mesh":1,
			"name":"Plane",
			"scale":[
				0.09378200769424438,
				0.09378200769424438,
				0.09378200769424438
			],
			"translation":[
				-0.278566837310791,
				-0.1444878876209259,
				-0.16110274195671082
			]
		},
		{
			"mesh":2,
			"name":"Curve.001",
			"scale":[
				5.669179916381836,
				5.669179916381836,
				5.669179916381836
			]
		},
		{
			"mesh":3,
			"name":"Curve.002"
		},
		{
			"mesh":4,
			"name":"Curve.003",
			"scale":[
				0.9997809529304504,
				0.9997809529304504,
				0.9997809529304504
			]
		}
	],
	"materials":[
		{
			"doubleSided":true,
			"name":"SVGMat.002",
			"pbrMetallicRoughness":{
				"baseColorFactor":[
					1,
					1,
					1,
					1
				],
				"metallicFactor":0,
				"roughnessFactor":0.4000000059604645
			}
		},
		{
			"doubleSided":true,
			"name":"SVGMat.003",
			"pbrMetallicRoughness":{
				"baseColorFactor":[
					1,
					1,
					1,
					1
				],
				"metallicFactor":0,
				"roughnessFactor":0.4000000059604645
			}
		},
		{
			"doubleSided":true,
			"name":"Pink",
			"pbrMetallicRoughness":{
				"baseColorFactor":[
					0.8002194166183472,
					0.022711917757987976,
					0.5200155377388,
					1
				],
				"metallicFactor":0,
				"roughnessFactor":0.5
			}
		}
	],
	"meshes":[
		{
			"name":"Curve.002",
			"primitives":[
				{
					"attributes":{
						"POSITION":0,
						"NORMAL":1,
						"TEXCOORD_0":2
					},
					"indices":3,
					"material":0
				}
			]
		},
		{
			"name":"Plane",
			"primitives":[
				{
					"attributes":{
						"POSITION":4,
						"NORMAL":5,
						"TEXCOORD_0":6
					},
					"indices":7
				}
			]
		},
		{
			"name":"Curve.004",
			"primitives":[
				{
					"attributes":{
						"POSITION":8,
						"NORMAL":9,
						"TEXCOORD_0":10
					},
					"indices":11,
					"material":0
				}
			]
		},
		{
			"name":"Curve.005",
			"primitives":[
				{
					"attributes":{
						"POSITION":12,
						"NORMAL":13,
						"TEXCOORD_0":14
					},
					"indices":15,
					"material":1
				}
			]
		},
		{
			"name":"Curve.006",
			"primitives":[
				{
					"attributes":{
						"POSITION":16,
						"NORMAL":17,
						"TEXCOORD_0":18
					},
					"indices":19,
					"material":2
				}
			]
		}
	],
	"accessors":[
		{
			"bufferView":0,
			"componentType":5126,
			"count":108,
			"max":[
				0.17738762497901917,
				0,
				-0.00014165043830871582
			],
			"min":[
				0.00016591929306741804,
				-0.012000000104308128,
				-0.07583334296941757
			],
			"type":"VEC3"
		},
		{
			"bufferView":1,
			"componentType":5126,
			"count":108,
			"type":"VEC3"
		},
		{
			"bufferView":2,
			"componentType":5126,
			"count":108,
			"type":"VEC2"
		},
		{
			"bufferView":3,
			"componentType":5123,
			"count":216,
			"type":"SCALAR"
		},
		{
			"bufferView":4,
			"componentType":5126,
			"count":18,
			"max":[
				5.523728847503662,
				2.6020920276641846,
				-0.3371247351169586
			],
			"min":[
				4.556970119476318,
				-0.11790773272514343,
				-1.3038839101791382
			],
			"type":"VEC3"
		},
		{
			"bufferView":5,
			"componentType":5126,
			"count":18,
			"type":"VEC3"
		},
		{
			"bufferView":6,
			"componentType":5126,
			"count":18,
			"type":"VEC2"
		},
		{
			"bufferView":7,
			"componentType":5123,
			"count":24,
			"type":"SCALAR"
		},
		{
			"bufferView":8,
			"componentType":5126,
			"count":122,
			"max":[
				0.17738762497901917,
				0,
				-0.00014165043830871582
			],
			"min":[
				0.00016591929306741804,
				-0.012000000104308128,
				-0.07583334296941757
			],
			"type":"VEC3"
		},
		{
			"bufferView":9,
			"componentType":5126,
			"count":122,
			"type":"VEC3"
		},
		{
			"bufferView":10,
			"componentType":5126,
			"count":122,
			"type":"VEC2"
		},
		{
			"bufferView":11,
			"componentType":5123,
			"count":246,
			"type":"SCALAR"
		},
		{
			"bufferView":12,
			"componentType":5126,
			"count":20,
			"max":[
				0.17738762497901917,
				0,
				-0.00014165043830871582
			],
			"min":[
				0.00016591929306741804,
				0,
				-0.07583334296941757
			],
			"type":"VEC3"
		},
		{
			"bufferView":13,
			"componentType":5126,
			"count":20,
			"type":"VEC3"
		},
		{
			"bufferView":14,
			"componentType":5126,
			"count":20,
			"type":"VEC2"
		},
		{
			"bufferView":15,
			"componentType":5123,
			"count":60,
			"type":"SCALAR"
		},
		{
			"bufferView":16,
			"componentType":5126,
			"count":120,
			"max":[
				0.17738762497901917,
				0,
				-0.00014165043830871582
			],
			"min":[
				0.00016591929306741804,
				-0.014999999664723873,
				-0.07583334296941757
			],
			"type":"VEC3"
		},
		{
			"bufferView":17,
			"componentType":5126,
			"count":120,
			"type":"VEC3"
		},
		{
			"bufferView":18,
			"componentType":5126,
			"count":120,
			"type":"VEC2"
		},
		{
			"bufferView":19,
			"componentType":5123,
			"count":240,
			"type":"SCALAR"
		}
	],
	"bufferViews":[
		{
			"buffer":0,
			"byteLength":1296,
			"byteOffset":0,
			"target":34962
		},
		{
			"buffer":0,
			"byteLength":1296,
			"byteOffset":1296,
			"target":34962
		},
		{
			"buffer":0,
			"byteLength":864,
			"byteOffset":2592,
			"target":34962
		},
		{
			"buffer":0,
			"byteLength":432,
			"byteOffset":3456,
			"target":34963
		},
		{
			"buffer":0,
			"byteLength":216,
			"byteOffset":3888,
			"target":34962
		},
		{
			"buffer":0,
			"byteLength":216,
			"byteOffset":4104,
			"target":34962
		},
		{
			"buffer":0,
			"byteLength":144,
			"byteOffset":4320,
			"target":34962
		},
		{
			"buffer":0,
			"byteLength":48,
			"byteOffset":4464,
			"target":34963
		},
		{
			"buffer":0,
			"byteLength":1464,
			"byteOffset":4512,
			"target":34962
		},
		{
			"buffer":0,
			"byteLength":1464,
			"byteOffset":5976,
			"target":34962
		},
		{
			"buffer":0,
			"byteLength":976,
			"byteOffset":7440,
			"target":34962
		},
		{
			"buffer":0,
			"byteLength":492,
			"byteOffset":8416,
			"target":34963
		},
		{
			"buffer":0,
			"byteLength":240,
			"byteOffset":8908,
			"target":34962
		},
		{
			"buffer":0,
			"byteLength":240,
			"byteOffset":9148,
			"target":34962
		},
		{
			"buffer":0,
			"byteLength":160,
			"byteOffset":9388,
			"target":34962
		},
		{
			"buffer":0,
			"byteLength":120,
			"byteOffset":9548,
			"target":34963
		},
		{
			"buffer":0,
			"byteLength":1440,
			"byteOffset":9668,
			"target":34962
		},
		{
			"buffer":0,
			"byteLength":1440,
			"byteOffset":11108,
			"target":34962
		},
		{
			"buffer":0,
			"byteLength":960,
			"byteOffset":12548,
			"target":34962
		},
		{
			"buffer":0,
			"byteLength":480,
			"byteOffset":13508,
			"target":34963
		}
	],
	"buffers":[
		{
			"byteLength":13988,
			"uri":"icon-olaf.bin"
		}
	]
}
